<?xml version="1.0"?>
<!DOCTYPE svg PUBLIC "-//W3C//DTD SVG 1.1//EN" "http://www.w3.org/Graphics/SVG/1.1/DTD/svg11.dtd">
<svg width="140.42012873mm" height="145.907056821mm" viewBox="0 0 140.42012873 145.907056821" xmlns="http://www.w3.org/2000/svg" version="1.1">
<g id="Sketch" transform="translate(70.210064,99.530389) scale(1,-1)">
<path id="Sketch_w0000"  d="M -32.5 -40.0 L -32.5 -45.0 L 32.5 -45.0 L 32.5 -40.0 L 35.0 -40.0 L 35.0 -30.0 L 32.5 -30.0 L 32.5 -20.0 L 35.0 -20.0 L 35.0 -10.0 L 32.5 -10.0 L 32.5 0.0 L 35.0 0.0 L 35.0 10.0 L 32.5 10.0 L 32.5 20.0 L 35.0 20.0 L 35.0 30.0 L 32.5 30.0 L 32.5 35.0 L 62.5 35.0 L 62.5 55.0 A 100.0 100.0 0 0 1 -1.02353681086e-11 90.0 A 100.0 100.0 0 0 1 -62.5 55.0 L -62.5 35.0 L -32.5 35.0 L -32.5 30.0 L -35.0 30.0 L -35.0 20.0 L -32.5 20.0 L -32.5 10.0 L -35.0 10.0 L -35.0 0.0 L -32.5 0.0 L -32.5 -10.0 L -35.0 -10.0 L -35.0 -20.0 L -32.5 -20.0 L -32.5 -30.0 L -35.0 -30.0 L -35.0 -40.0 L -32.5 -40.0 " stroke="#000000" stroke-width="0.35 px" style="stroke-width:0.35;stroke-miterlimit:4;stroke-dasharray:none;fill:none;fill-rule: evenodd "/>
<circle cx="-21.5" cy="-36.5" r="1.5" stroke="#000000" stroke-width="0.35 px" style="stroke-width:0.35;stroke-miterlimit:4;stroke-dasharray:none;fill:none"/>
<circle cx="21.5" cy="-36.5" r="1.5" stroke="#000000" stroke-width="0.35 px" style="stroke-width:0.35;stroke-miterlimit:4;stroke-dasharray:none;fill:none"/>
<circle cx="0.0" cy="-10.0" r="1.5" stroke="#000000" stroke-width="0.35 px" style="stroke-width:0.35;stroke-miterlimit:4;stroke-dasharray:none;fill:none"/>
<circle cx="0.0" cy="84.5263" r="1.5" stroke="#000000" stroke-width="0.35 px" style="stroke-width:0.35;stroke-miterlimit:4;stroke-dasharray:none;fill:none"/>
<circle cx="-8.25" cy="70.2368808376" r="1.5" stroke="#000000" stroke-width="0.35 px" style="stroke-width:0.35;stroke-miterlimit:4;stroke-dasharray:none;fill:none"/>
<circle cx="8.25" cy="70.2368808376" r="1.5" stroke="#000000" stroke-width="0.35 px" style="stroke-width:0.35;stroke-miterlimit:4;stroke-dasharray:none;fill:none"/>
<circle cx="-45.5" cy="62.0" r="1.5" stroke="#000000" stroke-width="0.35 px" style="stroke-width:0.35;stroke-miterlimit:4;stroke-dasharray:none;fill:none"/>
<circle cx="45.5" cy="62.0" r="1.5" stroke="#000000" stroke-width="0.35 px" style="stroke-width:0.35;stroke-miterlimit:4;stroke-dasharray:none;fill:none"/>
<circle cx="15.0" cy="41.0" r="1.5" stroke="#000000" stroke-width="0.35 px" style="stroke-width:0.35;stroke-miterlimit:4;stroke-dasharray:none;fill:none"/>
<circle cx="20.0" cy="25.0" r="5.0" stroke="#000000" stroke-width="0.35 px" style="stroke-width:0.35;stroke-miterlimit:4;stroke-dasharray:none;fill:none"/>
<circle cx="-20.0" cy="45.0" r="5.0" stroke="#000000" stroke-width="0.35 px" style="stroke-width:0.35;stroke-miterlimit:4;stroke-dasharray:none;fill:none"/>
<title>Croquis base</title>
</g>
</svg>