<?xml version="1.0"?>
<!DOCTYPE svg PUBLIC "-//W3C//DTD SVG 1.1//EN" "http://www.w3.org/Graphics/SVG/1.1/DTD/svg11.dtd">
<svg width="91.8mm" height="34.8mm" viewBox="0 0 91.8 34.8" xmlns="http://www.w3.org/2000/svg" version="1.1">
<g id="Sketch006" transform="translate(45.900000,28.900000) scale(1,-1)">
<path id="Sketch006_w0000"  d="M -45.0 0.0 L -45.0 23.0 L -45.0 25.5 L -45.0 28.0 L 0.0 28.0 L 45.0 28.0 L 45.0 0.0 L 35.0 0.0 L 35.0 -5.0 L -45.0 -5.0 L -45.0 -2.5 L -45.0 0.0 " stroke="#000000" stroke-width="0.35 px" style="stroke-width:0.35;stroke-miterlimit:4;stroke-dasharray:none;fill:none;fill-rule: evenodd "/>
<path id="Sketch006_w0001"  d="M -40.0 25.5 L -28.5714285714 25.5 L -28.5714285714 23.0 L -40.0 23.0 L -40.0 25.5 " stroke="#000000" stroke-width="0.35 px" style="stroke-width:0.35;stroke-miterlimit:4;stroke-dasharray:none;fill:none;fill-rule: evenodd "/>
<path id="Sketch006_w0002"  d="M -17.1428571429 25.5 L -5.71428571429 25.5 L -5.71428571429 23.0 L -17.1428571429 23.0 L -17.1428571429 25.5 " stroke="#000000" stroke-width="0.35 px" style="stroke-width:0.35;stroke-miterlimit:4;stroke-dasharray:none;fill:none;fill-rule: evenodd "/>
<path id="Sketch006_w0003"  d="M 5.71428571429 25.5 L 17.1428571429 25.5 L 17.1428571429 23.0 L 5.71428571429 23.0 L 5.71428571429 25.5 " stroke="#000000" stroke-width="0.35 px" style="stroke-width:0.35;stroke-miterlimit:4;stroke-dasharray:none;fill:none;fill-rule: evenodd "/>
<path id="Sketch006_w0004"  d="M 28.5714285714 25.5 L 40.0 25.5 L 40.0 23.0 L 28.5714285714 23.0 L 28.5714285714 25.5 " stroke="#000000" stroke-width="0.35 px" style="stroke-width:0.35;stroke-miterlimit:4;stroke-dasharray:none;fill:none;fill-rule: evenodd "/>
<path id="Sketch006_w0005"  d="M -40.0 0.0 L -30.0 0.0 L -30.0 -2.5 L -40.0 -2.5 L -40.0 0.0 " stroke="#000000" stroke-width="0.35 px" style="stroke-width:0.35;stroke-miterlimit:4;stroke-dasharray:none;fill:none;fill-rule: evenodd "/>
<path id="Sketch006_w0006"  d="M -20.0 0.0 L -10.0 0.0 L -10.0 -2.5 L -20.0 -2.5 L -20.0 0.0 " stroke="#000000" stroke-width="0.35 px" style="stroke-width:0.35;stroke-miterlimit:4;stroke-dasharray:none;fill:none;fill-rule: evenodd "/>
<path id="Sketch006_w0007"  d="M 0.0 0.0 L 10.0 0.0 L 10.0 -2.5 L 0.0 -2.5 L 0.0 0.0 " stroke="#000000" stroke-width="0.35 px" style="stroke-width:0.35;stroke-miterlimit:4;stroke-dasharray:none;fill:none;fill-rule: evenodd "/>
<path id="Sketch006_w0008"  d="M 20.0 0.0 L 30.0 0.0 L 30.0 -2.5 L 20.0 -2.5 L 20.0 0.0 " stroke="#000000" stroke-width="0.35 px" style="stroke-width:0.35;stroke-miterlimit:4;stroke-dasharray:none;fill:none;fill-rule: evenodd "/>
<circle cx="-40.0" cy="11.5" r="2.0" stroke="#000000" stroke-width="0.35 px" style="stroke-width:0.35;stroke-miterlimit:4;stroke-dasharray:none;fill:none"/>
<circle cx="0.0" cy="11.5" r="7.0" stroke="#000000" stroke-width="0.35 px" style="stroke-width:0.35;stroke-miterlimit:4;stroke-dasharray:none;fill:none"/>
<circle cx="-8.75" cy="2.5" r="1.25" stroke="#000000" stroke-width="0.35 px" style="stroke-width:0.35;stroke-miterlimit:4;stroke-dasharray:none;fill:none"/>
<circle cx="11.25" cy="11.5" r="2.0" stroke="#000000" stroke-width="0.35 px" style="stroke-width:0.35;stroke-miterlimit:4;stroke-dasharray:none;fill:none"/>
<circle cx="-8.75" cy="20.5" r="1.25" stroke="#000000" stroke-width="0.35 px" style="stroke-width:0.35;stroke-miterlimit:4;stroke-dasharray:none;fill:none"/>
<circle cx="40.0" cy="11.5" r="2.0" stroke="#000000" stroke-width="0.35 px" style="stroke-width:0.35;stroke-miterlimit:4;stroke-dasharray:none;fill:none"/>
<title>Croquis izquierdo</title>
</g>
</svg>