<?xml version="1.0"?>
<!DOCTYPE svg PUBLIC "-//W3C//DTD SVG 1.1//EN" "http://www.w3.org/Graphics/SVG/1.1/DTD/svg11.dtd">
<svg width="91.8mm" height="37.8mm" viewBox="0 0 91.8 37.8" xmlns="http://www.w3.org/2000/svg" version="1.1">
<g id="Sketch006" transform="translate(45.900000,30.900000) scale(1,-1)">
<path id="Sketch006_w0000"  d="M 45.0 30.0 L 45.0 0.0 L 35.0 0.0 L 35.0 -6.0 L -45.0 -6.0 L -45.0 30.0 L 45.0 30.0 " stroke="#000000" stroke-width="0.35 px" style="stroke-width:0.35;stroke-miterlimit:4;stroke-dasharray:none;fill:none;fill-rule: evenodd "/>
<path id="Sketch006_w0001"  d="M -40.0 27.0 L -28.5714285714 27.0 L -28.5714285714 24.0 L -40.0 24.0 L -40.0 27.0 " stroke="#000000" stroke-width="0.35 px" style="stroke-width:0.35;stroke-miterlimit:4;stroke-dasharray:none;fill:none;fill-rule: evenodd "/>
<path id="Sketch006_w0002"  d="M -17.1428571429 27.0 L -5.71428571429 27.0 L -5.71428571429 24.0 L -17.1428571429 24.0 L -17.1428571429 27.0 " stroke="#000000" stroke-width="0.35 px" style="stroke-width:0.35;stroke-miterlimit:4;stroke-dasharray:none;fill:none;fill-rule: evenodd "/>
<path id="Sketch006_w0003"  d="M 5.71428571429 27.0 L 17.1428571429 27.0 L 17.1428571429 24.0 L 5.71428571429 24.0 L 5.71428571429 27.0 " stroke="#000000" stroke-width="0.35 px" style="stroke-width:0.35;stroke-miterlimit:4;stroke-dasharray:none;fill:none;fill-rule: evenodd "/>
<path id="Sketch006_w0004"  d="M 28.5714285714 27.0 L 40.0 27.0 L 40.0 24.0 L 28.5714285714 24.0 L 28.5714285714 27.0 " stroke="#000000" stroke-width="0.35 px" style="stroke-width:0.35;stroke-miterlimit:4;stroke-dasharray:none;fill:none;fill-rule: evenodd "/>
<path id="Sketch006_w0005"  d="M -40.0 0.0 L -30.0 0.0 L -30.0 -3.0 L -40.0 -3.0 L -40.0 0.0 " stroke="#000000" stroke-width="0.35 px" style="stroke-width:0.35;stroke-miterlimit:4;stroke-dasharray:none;fill:none;fill-rule: evenodd "/>
<path id="Sketch006_w0006"  d="M -20.0 0.0 L -10.0 0.0 L -10.0 -3.0 L -20.0 -3.0 L -20.0 0.0 " stroke="#000000" stroke-width="0.35 px" style="stroke-width:0.35;stroke-miterlimit:4;stroke-dasharray:none;fill:none;fill-rule: evenodd "/>
<path id="Sketch006_w0007"  d="M 0.0 0.0 L 10.0 0.0 L 10.0 -3.0 L 0.0 -3.0 L 0.0 0.0 " stroke="#000000" stroke-width="0.35 px" style="stroke-width:0.35;stroke-miterlimit:4;stroke-dasharray:none;fill:none;fill-rule: evenodd "/>
<path id="Sketch006_w0008"  d="M 20.0 0.0 L 30.0 0.0 L 30.0 -3.0 L 20.0 -3.0 L 20.0 0.0 " stroke="#000000" stroke-width="0.35 px" style="stroke-width:0.35;stroke-miterlimit:4;stroke-dasharray:none;fill:none;fill-rule: evenodd "/>
<circle cx="-40.0" cy="12.0" r="2.0" stroke="#000000" stroke-width="0.35 px" style="stroke-width:0.35;stroke-miterlimit:4;stroke-dasharray:none;fill:none"/>
<circle cx="0.0" cy="12.0" r="7.0" stroke="#000000" stroke-width="0.35 px" style="stroke-width:0.35;stroke-miterlimit:4;stroke-dasharray:none;fill:none"/>
<circle cx="-8.75" cy="3.0" r="1.25" stroke="#000000" stroke-width="0.35 px" style="stroke-width:0.35;stroke-miterlimit:4;stroke-dasharray:none;fill:none"/>
<circle cx="11.25" cy="12.0" r="2.0" stroke="#000000" stroke-width="0.35 px" style="stroke-width:0.35;stroke-miterlimit:4;stroke-dasharray:none;fill:none"/>
<circle cx="-8.75" cy="21.0" r="1.25" stroke="#000000" stroke-width="0.35 px" style="stroke-width:0.35;stroke-miterlimit:4;stroke-dasharray:none;fill:none"/>
<circle cx="40.0" cy="12.0" r="2.0" stroke="#000000" stroke-width="0.35 px" style="stroke-width:0.35;stroke-miterlimit:4;stroke-dasharray:none;fill:none"/>
<title>Croquis izquierdo</title>
</g>
</svg>