<?xml version="1.0"?>
<!DOCTYPE svg PUBLIC "-//W3C//DTD SVG 1.1//EN" "http://www.w3.org/Graphics/SVG/1.1/DTD/svg11.dtd">
<svg width="71.4mm" height="91.4mm" viewBox="0 0 71.4 91.4" xmlns="http://www.w3.org/2000/svg" version="1.1">
<g id="Sketch005" transform="translate(35.700000,45.700000) scale(1,-1)">
<path id="Sketch005_w0000"  d="M -35.0 -17.1428571429 L -32.0 -17.1428571429 L -32.0 -28.5714285714 L -35.0 -28.5714285714 L -35.0 -40.0 L -32.0 -40.0 L -32.0 -45.0 L 32.0 -45.0 L 32.0 -40.0 L 35.0 -40.0 L 35.0 -28.5714285714 L 32.0 -28.5714285714 L 32.0 -17.1428571429 L 35.0 -17.1428571429 L 35.0 -5.71428571429 L 32.0 -5.71428571429 L 32.0 5.71428571429 L 35.0 5.71428571429 L 35.0 17.1428571429 L 32.0 17.1428571429 L 32.0 28.5714285714 L 35.0 28.5714285714 L 35.0 40.0 L 32.0 40.0 L 32.0 45.0 L -32.0 45.0 L -32.0 40.0 L -35.0 40.0 L -35.0 28.5714285714 L -32.0 28.5714285714 L -32.0 17.1428571429 L -35.0 17.1428571429 L -35.0 5.71428571429 L -32.0 5.71428571429 L -32.0 -5.71428571429 L -35.0 -5.71428571429 L -35.0 -17.1428571429 " stroke="#000000" stroke-width="0.35 px" style="stroke-width:0.35;stroke-miterlimit:4;stroke-dasharray:none;fill:none;fill-rule: evenodd "/>
<path id="Sketch005_w0001"  d="M -19.0 40.0000000353 A 1.0 1.0 0 1 1 -21.0 39.99999995 L -21.0 31.99999995 A 1.0 1.0 0 0 1 -19.0 31.999999986 L -19.0 40.0000000353 " stroke="#000000" stroke-width="0.35 px" style="stroke-width:0.35;stroke-miterlimit:4;stroke-dasharray:none;fill:none;fill-rule: evenodd "/>
<path id="Sketch005_w0002"  d="M -9.0 40.0000000431 A 1.0 1.0 0 0 1 -11.0 40.0000000896 L -11.0 32.0000000896 A 1.0 1.0 0 1 1 -9.0 32.0000000527 L -9.0 40.0000000431 " stroke="#000000" stroke-width="0.35 px" style="stroke-width:0.35;stroke-miterlimit:4;stroke-dasharray:none;fill:none;fill-rule: evenodd "/>
<path id="Sketch005_w0003"  d="M -9.0 16.0000000347 A 1.0 1.0 0 1 1 -11.0 15.9999999821 L -11.0 7.99999998208 A 1.0 1.0 0 1 1 -9.0 8.00000001601 L -9.0 16.0000000347 " stroke="#000000" stroke-width="0.35 px" style="stroke-width:0.35;stroke-miterlimit:4;stroke-dasharray:none;fill:none;fill-rule: evenodd "/>
<path id="Sketch005_w0004"  d="M 11.0 39.9999997373 A 1.0 1.0 0 1 1 9.0 40.0000000123 L 9.0 32.0000000123 A 1.0 1.0 0 1 1 11.0 32.0000002839 L 11.0 39.9999997373 " stroke="#000000" stroke-width="0.35 px" style="stroke-width:0.35;stroke-miterlimit:4;stroke-dasharray:none;fill:none;fill-rule: evenodd "/>
<path id="Sketch005_w0005"  d="M 19.0 39.9999992651 L 19.0 31.9999992651 A 1.0 1.0 0 0 1 21.0 32.0000002246 L 21.0 39.9999994674 A 1.0 1.0 0 1 1 19.0 39.9999992651 " stroke="#000000" stroke-width="0.35 px" style="stroke-width:0.35;stroke-miterlimit:4;stroke-dasharray:none;fill:none;fill-rule: evenodd "/>
<path id="Sketch005_w0006"  d="M 11.0 16.0000001371 A 1.0 1.0 0 0 1 9.0 15.9999999721 L 9.0 7.99999997213 A 1.0 1.0 0 0 1 11.0 7.9999999267 L 11.0 16.0000001371 " stroke="#000000" stroke-width="0.35 px" style="stroke-width:0.35;stroke-miterlimit:4;stroke-dasharray:none;fill:none;fill-rule: evenodd "/>
<path id="Sketch005_w0007"  d="M 21.0 16.0000000694 A 1.0 1.0 0 1 1 19.0 16.0000000204 L 19.0 8.00000002036 A 1.0 1.0 0 1 1 21.0 7.99999966462 L 21.0 16.0000000694 " stroke="#000000" stroke-width="0.35 px" style="stroke-width:0.35;stroke-miterlimit:4;stroke-dasharray:none;fill:none;fill-rule: evenodd "/>
<path id="Sketch005_w0008"  d="M -19.0 -8.0000001152 A 1.0 1.0 0 1 1 -21.0 -8.00000000033 L -21.0 -16.0000000003 A 1.0 1.0 0 0 1 -19.0 -16.0000000194 L -19.0 -8.0000001152 " stroke="#000000" stroke-width="0.35 px" style="stroke-width:0.35;stroke-miterlimit:4;stroke-dasharray:none;fill:none;fill-rule: evenodd "/>
<path id="Sketch005_w0009"  d="M -9.0 -8.00000008841 A 1.0 1.0 0 1 1 -11.0 -7.99999999652 L -11.0 -15.9999999965 A 1.0 1.0 0 0 1 -9.0 -16.0000000194 L -9.0 -8.00000008841 " stroke="#000000" stroke-width="0.35 px" style="stroke-width:0.35;stroke-miterlimit:4;stroke-dasharray:none;fill:none;fill-rule: evenodd "/>
<path id="Sketch005_w0010"  d="M 11.0 -8.00000012761 A 1.0 1.0 0 1 1 9.0 -7.99999999498 L 9.0 -15.999999995 A 1.0 1.0 0 1 1 11.0 -15.9999998773 L 11.0 -8.00000012761 " stroke="#000000" stroke-width="0.35 px" style="stroke-width:0.35;stroke-miterlimit:4;stroke-dasharray:none;fill:none;fill-rule: evenodd "/>
<path id="Sketch005_w0011"  d="M 1.0 40.0000000288 A 1.0 1.0 0 0 1 -1.0 40.0000000415 L -1.0 32.0000000415 A 1.0 1.0 0 1 1 1.0 32.0000000127 L 1.0 40.0000000288 " stroke="#000000" stroke-width="0.35 px" style="stroke-width:0.35;stroke-miterlimit:4;stroke-dasharray:none;fill:none;fill-rule: evenodd "/>
<path id="Sketch005_w0012"  d="M 1.0 15.9999999898 A 1.0 1.0 0 1 1 -1.0 15.9999999893 L -1.0 7.99999998927 A 1.0 1.0 0 0 1 1.0 7.99999999128 L 1.0 15.9999999898 " stroke="#000000" stroke-width="0.35 px" style="stroke-width:0.35;stroke-miterlimit:4;stroke-dasharray:none;fill:none;fill-rule: evenodd "/>
<path id="Sketch005_w0013"  d="M 1.0 -8.00000000869 A 1.0 1.0 0 1 1 -1.0 -7.9999999737 L -1.0 -15.9999999737 A 1.0 1.0 0 1 1 1.0 -15.99999999 L 1.0 -8.00000000869 " stroke="#000000" stroke-width="0.35 px" style="stroke-width:0.35;stroke-miterlimit:4;stroke-dasharray:none;fill:none;fill-rule: evenodd "/>
<path id="Sketch005_w0014"  d="M -28.8 -28.4 L -15.2 -28.4 L -15.2 -37.6 L -28.8 -37.6 L -28.8 -28.4 " stroke="#000000" stroke-width="0.35 px" style="stroke-width:0.35;stroke-miterlimit:4;stroke-dasharray:none;fill:none;fill-rule: evenodd "/>
<title>Croquis techo</title>
</g>
</svg>